<svg xmlns="http://www.w3.org/2000/svg" viewBox="0 0 400 300"><rect width="400" height="300" fill="#0c1a3d"/><path d="M56 302l-2.9-34.4-.6-60.1 3.8-60.4 8-60.1 12.1-59.1 8.5-29.9M-2 202.1l41.8 4.3 51.3 3.8 52.1 2.3 52.6 .9 52.6-.7 52.2-2 51.4-3.6 50-5M-2 3.9l2.3-5.9M6.3 302l-3-30.9-1.4-30.7 .1-30.9 1.5-31 3-30.9 7.6-47.7 10.9-47.1 14.4-45.9 3.5-8.9M106.2 302l-1.6-25.6-.7-58.9 2.1-59.4 3.6-46.3 5.1-45.9 11.1-67.9M157.3 302l-.7-24.4 .6-117.1 3.9-91.6 5.5-70.9M208.7 302l0-140.9-1.9-163.1M260.1 302l1.4-83.1-1.3-59-5.5-91.7-7.6-70.2M310.9 302l1.9-26.3 .8-59.1-2.5-59.8-4.1-46.4-6.1-46-8.1-45.4-4.7-21M360.7 302l3-28.8 1.2-60.4-3.8-60.9-6.1-47.1-9-46.5-11.8-45.7-4.8-14.6M402 99.9l-12.5-50.2-18-51.7M-2 257.1l93.3 5.7 104.5 2.3 104.6-1.9 101.6-6.1M-2 146.3l45.3 6.1 50.1 4.8 51 2.9 51.4 1 51.6-.7 51.1-2.6 50.3-4.5 53.2-7M-2 89.7l52.3 9 47.8 5.5 48.7 3.4 49.2 1.2 61.6-1.4 48.6-3.6 47.7-5.7 48.1-8.3M-2 32.1l41.4 9.7 54.7 8.7 45 4.2 57.2 2.1 57.3-1.6 56.3-5.2 43.8-6.8 48.3-11.1M98.5 -2l46.7 5.4 51.5 2.1 51.5-1.7 53.5-5.8" fill="none" stroke="#1b3166" stroke-width=".8"/><path d="M188.9 155.2l-.3 1.2-2.5-.5 2.6-.9zM208.7 168.7l.9 1.6-4.5 3.7 1.9 2.8-4.1 1.6 0 2.5-1.3 1.5 3.7 4 0 1.8-4.6 2.8-6 1.4-.8 2.2-2.5-1.8-3.6 0-4-1.8 2.9 3.6 .9 5.7 3.5 .5 0 1-3.3 1.5-1 2-4.7 2.2-2 2.2-1.1-1.6-3.5 1.1-2.7-2.4-1.8-6.1-2.1-2.2-1.2 0 2.9-3.2-2.8-5.8 .2-4 1.8-4.7-1.9-.6-8.2 .7-3.6-4.4-10.1-1.1-1.9-2.3 .7-3.3-2.1-5.1-2.9-.6 3.7-8.5 3.9-4.2 3.3-.9-3.3 1.4 1.7 4.9-2.8 4.3 2.8 4.1 2.4-1.5 .3-1.8-2.2-4.5 .2-2.2 7.1-2.7 1.5 .3 0-1.1-1.9 .2-.5-1.3 1.5-1.5 1.8 3.7 4.1 .3 2.2 1.5 1.2 3.6 9.8-.6 2 2 3.7 1 7.2-2.2-2.9-.7 12.4-.5-5.3 1.1 1.2 1.3-.3 1.2 1-.7 1.2 2.1 1.2-1 1.8 1.8-.2-.9 .9-.4 4.2 2.8-2.4 3.9-1.9 .1 1.6 .9 5.9-1.1zM177.9 116.7l2.5 .4-1.7 2.1-6.1-.2 .2-2.7 5 .3zM150.4 -2l-1.8 2.9 1.1 .7-.8 3.1 0-.9-3.5 4.7-.7 .2 .4-1-2.4-1.9 2.2-2.4-2.3 1.6 1.4 6.4-4.6 6.2 1.7-4-.8-.2 .2-2-.8 .4-.8-.9 .1-.8 1.1-.1-1.3-.5 .8-2.4 1.7-1.5-3 .9 0 4.7-1-1 1 2.5-3.4-2 1.2-2.4-1.4 1.7-.1 1 3.9 2.7-1.1 1-2.2-2.7 3 4-.9 .8-1.1-1.3 1.5 1.9-.4 .8-.8-1.2-2.5-.8 2.3 1 .6 1.5 2 .1 1.3 5.7-1.2-4.4 .2 2.8-1.3-.9-2 1.2-.6-1.2-.1 1.4 2.8 .2-.3 1.4 1.2-1.3 .3 .6-2.1 2.4-3.6-1.2 2.1 1.5-1.3 1.4-1.2-1 .4 .7 2.2 .4-.1 .7-3.8 1-.4-.7-.1 1-2.8 2.9 .1-1.2-.5 1.3-3.7 .6-5.6 5-3.2 .5 .6 .5-.5 .7-.9-.9 .3 1.2-3.7 4.2-1.1 2.8 .4 5.3 2.3 7.2-.1 3-.3-3.3-.5 .9-.3-2.2 .1 2 2.1 8.5-2.4 7.6-3.2 .8-.4-1 .8 .3-1.6-3.1-1.8-1.9-.5-1.9 .8-.9-1.1 .6 .4-2.1-1.3 .3-1.5-3.5 1.7-1.6-.9-.9-.3 1.4-.8-.8 1.7-5.3-3.8-5.9-1.4-1.1-6.1 1.5-1.1-2.5 .4-.8-.9 .5-2.7-1.6 1.5 .1-.5-.5-4.4 .3 1.2-1.1-1.5 1-3.3 .1 1-.1-.6-2.3-.9 1.7-3.3-.8-3.3 .9-2.1-1.4-1 .3-.5 .7 .9 .7 2.1-.5-.6 .9 .7 .6 1.2-.6 0 1.2-1.9 .9 2.7 2.6-1.8 .9-.1-1.1-2.8-2.3-.7 2.2-.5-1.1-1.9 .6-2.2-1.2 .5-1.4-2.5-1.9-1.9 1.2-3.7-1.8-2.9-.2 .2-1.4-.6 1.5-4.1 1 1.2-.7-1.1-.2 .4-1-1.2 0 .1 1.8-2.2 1.9-4.8 1.7 1.1-.6-2.6-.9 .6 1.5-1.6-.1-.6 1.2-1.4 0-.4 1.4-1.2 0 .4 1-1.2 1.7-1.2-1 .9 1.4-.8 4.1 .7 3-1.2 .3-3.6-2.1-3.3-2.5-.2-6.2-4.6-13.3-3.9-1.6-5.2 3.7-3.8-4.2-.4-5.9-4-7.9-7-2-.3 .7 0-24.5zM156 -.9l2.5-.3-5.5 1.8-3.4 .1 .7-1 6-.9zM139.8 27.5l-.7 0 1.2-2.7-.3 2.5zM203.5 160.4l-4.6 .4 2.1-1.1 .1-1.7-.9-.6 3-.6 .8-.1-.4 3.5zM239.3 184.9l-1.6 2.8 .7 4.1 1.9 2.4-1 4-2.2 2.6-1.9-1.3-3.9 1-1.3-.5-.8 1.3 1.1 1.2-.5 1-3.6-.9-2.7-4.4-.5-2.6-1.8-.1-1-1.4-1.2-2.2 .7-3.8 3.2-1.2 1.7-5 5.6 1.4 .4-1.3 7.6 .1 1.6 .5-.1 1.6zM391.6 18.3l2.2 0-1.1 .9-1.2-.5zM338.1 -.2l-1.2 .5 0-.8zM348.9 .8l1.8-.4-.7 .9-1.7-.7zM119.1 166l-.6 .8 1.3 2.8-1.8 2.1-1.1-.8-.8 2.5-2.5-4.6 1.5-1.6 1.9 1.4-1.7-2-1.5-.1-.1 .8-.5-1.5-2.8-2.1-2.2 0-1.3 1.9-3.7 1.8 2.1 3.9-2.3 1-2.1 .2-.9-3.7-1.1 1.4-2.2-2.9-2.6-1.1-2.7-.1-.6 1.2-.7-1.5 1.7-3-1-.8 .9-2.8 2.1 1.1 1.3 2.7 1.6 0-.6-1 2.7 2.1 6.3-1.9 3-1.9 5.4 1.4 4 3zM92.1 130.4l-1.3 .8 .9 2.7-2.4 5.2-.1 4.9-.3-1.7-.9 1.1 .2 2.6-.8 .8 .8 1.2-1.3 1.7 1 2.2-1.4 .8-3.5-1.9-1.4 .4-3.3-1.6-.9 .6-8.6-11.1 3.2 .1 1.7-1.5 0-2.3 2.1 .1 1.6-1.4 1.4 1.2 4.2-4.4 2.5 .8 5.4-1.5zM163.9 149.9l-2-1.3 1.6 .7zM122.9 114.3l4.3 1.9 .6 1.3-3.1-.5-1.9 1.3-5.3-3.4 2.4-1.1 2.5 .5zM92.1 130.4l-6.6 1.3-2.5-.8-4.2 4.4-1.4-1.2-1.6 1.4-2.1-.1 0 2.3-1.9 1.6-1.4-.1-.5-2.1-1.6-.4 .3-2.6-1.7-.7-1.7 .6-4-3.5 1.5-3.4 7.6-3.7 3.8 1.2 2.7 .2 2-1.1 4.9 .6 3.4 1.2 2.2 2.3-1.6 .1 1.6 1.1 1.3 .1-.7-.9 1.9 1.9zM150.3 109.2l.5 2.9-.6 2.3-1.3 .6 1.1 1.4-.1 1.6-1.4-1.1-6.6-.4-2.5 1-2.8-2.3 1.3-1 7 1.5 2.1-.6-2-2.7 .6-2-3.3-1.3 0-.7 2.6-.6 5.1 1.5zM144.9 113.9l-2.3-.7 1.8 .2zM205 186.2l-3.4-3.8 1.3-1.5 0-2.5 4.1-1.6-1.9-2.8 4.5-3.7-.9-1.6 4.2 2.4 3.6 3.5-.8 5.3 2-2.5 5.6 3.5 .1 5.2-3.5 1.7-.9 4.1 2.2 3.6 1.8 .1 .6 2.7 2.6 4.3 1.2 .4-4.4 0-3.8 2.3-1.6-.3-.9 1.6-1.4 .4-2.3-.9-2.8-2.7-1.3-4.5 .7-4.3 1.6-1.8-.8-2.3-2.3-.8 .8-2.9-.8-.8-2.7 .1zM47.3 128.1l1.1-2.7-.4-1.2 2.8-4 6.3 .8 .3-1.7-4.1-5.2 2 .3 .4-3.1 8.8 1.1-1.7 10.2 3 1.1 .2-1 1.6 1.4-4.9 3-.4 2.5-2.1 .9-3 3.2-8.1-3.6zM204.4 137.6l-1.2 .1-.8-1.7 1.8 1zM200.5 129.7l-.8-.3-.1-1.5 1.1 .4 0 1.2zM237.1 200.8l2.2-2.6 1-4-1.9-2.4-.6-5 2.7-4.1 5.4 1.7 3.2 2.4-.2 1 1.4 .2 .3 1.9 .9-1.5 1 3-6.4 9.8-4.5-.6-1.9 1.3-2.4-1zM61.2 130.5l4 3.5 1.7-.6 2 1-.7 2.9-1.9 .5-2.4-.9 .8 .6-6.1-2.7-1.3-1.6 3.8-2.8zM128.6 212.6l-1.8 0 1.9 2.5 0 1.9-.8-.2-.9 3.2-5.8 5.2-6.2 1.9-1.6 2.5-.9-.4-1.8 6-1.8 2.1-1.2-.1-2-2.8-2.6-.9-1.8 .4 .7-.9-.7-1.1 1.6-.6-.7-2.6 1.9-1.2 1.2-2.9-.6-2.8-.4 2.6-.4-1.1-1.5 1.8-3.5-2.9 1-.5-.6-5.3 2.3-2.5 .9 .2-1-1.4 2.3-2.6-.1-3.3 6.2-1.9 .2-1.4 6 3.6 1.5 2.4 4.7 1 1.2-1 4.2 2.7zM46 206.8l2.4 4.4-1.8 1.3-1.8-.7 1.9-1.8-2.3-3.2 1.5-.3zM149.9 118l.1-1.6-1.1-1.4 1.3-.6 .1-5.2 .8-.8 3.9 .1 4.2 1.3 1 2 2.1-.1 .2 .5-1.8 .5 4.6 1.3 1.7 1.6-1.7 2-3-1.3-6 1-1.4-.7-1.5 .4-2 3.2-1.3-2zM202.1 133.6l-1-1.8 1.1 1.2zM103.2 87.9l9.4 2.3 2.4 2.7 2.8 .4 4.7 3.4 .7-.4 1.6 1.3-1.1 .1 .5 .8 .8-.6 1 1.5 5.5 1.5 .6 .6-.8 1.5 3.7 .4 3.7 2.2-.5 1.1-4.2 .7-12.8-.6 3.3-2.7-.5-1.2-4.3-1-1.7-1.6-.8-2.9-3.1-.2-4-1.9-1.1-1.4-2.6 0-.6-1.1-.6 .8-2.5-.7-1.1-1.1 1.8-.4-.5-1-4.3-.5-3.3 2.2-2.5 0-.8 1.2-2.4 .6 .1-.8-1.8 .2 2.8-.9 0-1.6 1.7-1.4 9.6-1.8zM98.8 95.9l-2 .5-1-.9 1 .1 .1-1.8 1.3 .4 .6 1.4zM92.9 159.4l-2 .5-.1 2.1 1 .8-1.7 3 .7 1.5-1.9-3.3-.9-.3 .8 1.6-1.6-.5-.6-.7 .7-2.2-4.6-3.3-2.1-3.1-1.1-.8 1.7 2.5-1.2 1.2-2.5-2-.9-2.2 1.1-2.3-1.2-.9 1.8-1.4 3.3 1.6 2.8 0 2.1 1.5 1.4-.8 1.3 3.3 3.5 4zM150.7 150.5l-3.3 .9-3.9 4.2-3.7 8.5 2.9 .6 2.1 5.1-.7 3.3 2.3 2.6 9.7 .8 3.6 4.4 8.2-.7 1.9 .6-1.8 4.7-.2 4 2.8 5.8-2.9 3.2 1.2 0 2.1 2.2 1.7 5.4-1 .9 0-2.3-1.7-2.6-2.8 1.8-1.3-1.2 .1 1.4-8.8-.2-.1 3.4 2.9 .1 .8 2.2-4.8 .2-.1 3.8 2.3 2 1.2 3.6-3 15.7-2-2.2-2-.2 3.3-5.8-4.6-2.4-2.2 .6-1.9-1-2.4 1.2-3.8-.2-1.1-.6-.2-2.3-1.6-.8-.9-2.3-3-1.6-2.9-4.1-5-1.8-2.6-1.9-1.2 1-4.7-1-1.5-2.4-3.2-1.3-3.6-3.2 1.2-1.1 1.1 .4 0-3 4.1-1.7 4-6.1-1 0 0-.9-.5 .6-.8-1.4 1.3-2.7-1.1-4.3 1.5-1.2-1.1-2.2 .6-2-2.5-3.6 .8-2.5 1.1 .8 1.8-2.1-1.3-2.8 .5-.8 2.9 3.9-.5-3.4 3.4-2 1.3-1.9 2.1-.4 .6-3.9-.8 .3 1.4-2.4 3.2-2.5 2.6 .7-1 .7 .6 .5 1.4-2.8 4.3 .3 8.3-5.6 2.3 .5 .6 1.6-.8 .6zM389.3 120.3l-1.2 .4-.5-1.9 1.2 .9zM263.4 213.5l6.5 .1-.9 3.2-1.9 3.1-3 .3-1.5 1.5-3.4 .2-1.5-2.2 0-1.3 .8-.2-1.1-.4 0-1.7 .7-2.2 2.1-.9zM262.8 210.9l-.5 1.4-2.3 0 0-1.1 2.1-.4zM258 213.2l-1.4 1-.6-.5 2.1-.7zM264.4 212.9l-1.9-.3 1.6-.8 .6 .7zM259.2 211.7l-.1 .8-.9-.3 1-2.7 .5 1.6zM251.9 220.1l2.1-4.6 1.4 .5-2.5 3.6zM64.5 112.4l.2-.8 1.6 .2 2-2.5 1.7 1.5-2.2 8.4-3.3 3.7-1.7-.3 1.5-8.9zM123.7 83.8l.4 2.1-1.2 .5-.9-2.5 1.5-.3zM126.6 75.3l-.7-.7 1-2.7-1.1-1.6-2-.5 2 .2 1.9 2.1-.9 3zM144.6 101.2l-1.9 1.2-1.3 0 0-.9 3.3-.9zM123.5 81.4l-.1 1.3-1.5 .8-1.4-1.5 1.1-3.3 1.5 2.2zM121.2 70.5l2.6 .6-4.2 .4-.7-.9 1.2 .5 .6-.9zM139.3 95.5l1.5-1.5-.1-1 .5 .9-1.4 1.2zM129.1 77.7l2.3 2-.4 2.5-.7-.9 .9-1.5-2.7-1.8 .4-.7zM136.5 91.8l-1.7-1.5-.3-2.3 2 3.3zM134.8 84.8l-.9 .3 .5-.6-1.4-2.2 .9 1.3z" fill="#3d5283" stroke="#0c1a3d" stroke-width=".8" stroke-linejoin="round"/><circle cx="200" cy="150" r="13" fill="#ff8a1f" fill-opacity=".22" stroke="#ff8a1f" stroke-width="3"/><path d="M199.9 150.6l.3-1.2 .1 1z" fill="#ff8a1f" stroke="#fff1dc" stroke-width="1.2" stroke-linejoin="round"/></svg>