<svg xmlns="http://www.w3.org/2000/svg" viewBox="0 0 400 300"><rect width="400" height="300" fill="#0c1a3d"/><path d="M5.3 302l7.9-75.8 17.2-134 14.4-94.2M147.2 302l1.7-64.9 9.1-239.1M288.3 302l-3.1-66.4-15-237.6M402 100.7l-2-12.9-16.1-89.8M-2 185.1l52.7 6.7 66.2 5.4 33.2 1.6 66.5 .8 66.5-2.4 33.1-2.3 33-3.1 52.8-6.7M-2 28.5l40.8 6.5 58.3 6.6 29.3 2.2 58.9 2.2 58.9-.7 58.8-3.6 58.3-6.6 40.7-6.5" fill="none" stroke="#1b3166" stroke-width=".8"/><path d="M402 9.9l-9.9 1.3-4.6-2-.1-3-1.1-2.4 1.3-.9-3.4-2.1 .1-2.8 17.7 0zM334.3 282l-2-.4 2.9-2.1-.2 2.1zM342.7 282.5l-4.1 .5 2.7-1.7 .9 .6zM102.4 105l3.1 1.6 .7-1.6 1.9-.9 .6-2.5 3.3-.8-1-3.5 1.9-5.2 3.4 1 1.4 1.7 4.5 .4 9.6-3.4 3 .7 3.9 2.9 7.2 .5 8.2-1.9 8.6-3.9 9.9 .4 9.1-2.8 1.1 3.4-7 7-4.6 1.2-1.6 1.9-.7 4.8 1.2 6.7-1.9 5.3-.4 8-2.8 5.2-3.8 1.3-51.1 28.6-5.7-1.5-7.1-5.9 1.8-3.1-.5-6 2.8-3.7-1.1-1.3 .5-1 1.6-1.4 3.5 .1-.7-1.9 3.9-3.7-.7-3.3-2.2-1.2 1.4-1.7-.5-.7-5.2 .1-.7-5 1-4.2-.3-3-1.5-2.5 1.3-4.2zM104.8 267.5l-4.9-3.7 .1-1.3 5.6 4.6zM100.9 262.2l-.7-.4 .6-1.8 .1 1.8zM305.1 278.8l-4.2 .8-1.6-1.5-2-10.9 2.9-9.2 3.4-2.8 4.1 3.5 .5 1.9-.9 4 2.1 7.1-2.5 6.4zM362.2 302l-.2-3.8 3.6-12.5-1.1-1.7 7-2.7-1-2.2-2.4-.2-.4-9.6 .9-1.4 1.8-.2-.2 1.5 1.5 1.7 4.1-4.2 4.2 7.4 7.5 6.7 7.1 1.8 7.4 .5 0 18.9zM373.5 256.5l-2.2-.3-.3-5.5-1.2-.1 1-2.4 1.9-.6 1.3-2 .3 8.5-.8 1.5zM101.9 124.9l3.6 .2 .5-.7 1.6 1.1-1.4 1.7 2.2 1.2 .7 3.3-3.9 3.7 .7 1.9-4.4 .6-1.2 1.7 1 1.7-5.8 4.5-.9-.2-.6 1.9-5 .2 7.6-14 .7-3.3 4.5-4.3zM260.4 204.2l-1.2 .2-1.5-2.8 1-2.5 2.6 2.6-.1 1.3zM263.3 220.7l-10.4 .5-3.4-6.9-12.2-1.3 4.9-6.9 3-7.2 2.4-1.3 5.6-.1 3.1 1.3 2.4 6.2-2.4-.6-3.1 3.6 4.4 .4 5 10.9zM97.3 153.7l7.1 5.9 5.7 1.5 26.1-14.8 3.1 13.7-1 .3 .6 2.6 2.7-.6 .5 1.7-4.4 3.6-26.5 6.3 12.5 16-4.8 2.6-2.4 4.8-9.6 1.3-4.1 5.5-6.4 4.2-14.1-3.6 3.5-11.8 .4-4.3 4.7-10.6-.4-1.6 2.7-8 1.2-13.4 2.2-1.2zM99.1 143.1l0 7.5-1.8 3.1-2.9 1.3-.5 3.7-4.5-2.5-1.7 1-1.9 4.5-.3 5.2 2.2 .2 .9 1.1-3.5 2-1.2 3.6 2.9 .2 4.7-1.3-.6 5.3-4.2 9-.9 5.9-3.9 9.9-6.5-27.3 4.1-4.6-.6-.9 3-4.6 7.1-17.7 3.9 .4 1.7-2.5 .9 .2 3.3-2.5zM78.9 170l.6 .9-2.6 3.4-1.5 1.2-.5-1.8 2.7-2.3zM93.9 158.7l-.7 9.7-1.7 4.3-7.3 1.3 .9-3.8 3.5-2-3.2-1.6 .4-4.9 1.9-4.5 1.7-1 2.1 .6 1.5 1.7zM370 237.3l-2.9 3.7-1.4-.3-6.7 3-.8-1.1 6.2-3-.3-2.1 2.1 .3 4-1.8 1 .6zM3.4 93.3l-1.5-.7 .5-3.3 1.5-1.4 5.5-1.6-2.7 5.4-1.5 0zM-2 168.5l10.5 5.1 10.8-4.6 3.9 0 2.6-2.8 7-.8-5 1.7 5.8 0 1.3-2 5.5 2.9 4.8-.7 2.9 3.4-2.9-2.5-1.9 2.7 3 1.5 1 2.1 2.5-1.4-.7-1.6 4.7 4 7-.8 .7 1.4 6.2-.1 7.2-2.3 7 29.1-2.5 3-6.1 18.8-2.7 3.7-5.9-4.9-6.1-8.7-1-6.4-4.6-8.9-1.5-7.2-1.2 .7-2 4.3 2.7 5.1 .2 6.1 2.7 5.9 7.8 11.1-.4 4.5 3.5 6.8 .8 8.3 7.2 15.4 7.5 19.4 3.6 5.2 4 3.6-3.4 0-.6 2.1-.1 5.2 1.5 6.1-87.3 0zM77.8 116.1l-1.7-.6-5 .9-.9-2.6-2.4-.4-3.5 1-2.4-1.2 2-.3 1.2-3.1 8.2 1.4 12.2-3.6-8.2 4.9-.3 2.3zM61.8 112.8l2.5 1.6 3.5-1 2.4 .4 .9 2.6 5-.9 1.7 .6 .4 1.2-4.4-.1-3.9 3-3.8 .4-1.6 1.8-.8-.2-.8-1.4-2.2 0-2.9-1.6-1.3-3.6 .1-2 1 .6 3.5-1.6zM19.7 -2l1.3 3.6-5.5-.1-2.8-3.2-7.4 .7-4 3.2-2.4-.6-.9 5.3 0-8.9zM294.8 259.9l-.4 1.2-1.6-2.4-.4-3.4 1.8-.9 .7 3.6zM212.7 51.4l-.6-.8 3.1-1 1.7 3 1-.4 2.4 1.5 3.8-.8-.1 2.5 2.6 2 1.7 5.6-7.6-1.8-4.1-3.8-3.7-5.6zM261.6 68.6l-3.3 .5-7.4-6.5 .6-1.2 2.8-1.4-2.4-3.3 2.4-2.6-4-4.2-2.6 .7-3.5 2.4-11.4 9.5-1.2-4.4 2.2-.5-2.7-2.7 1.3-2.4-1.9-.9-1.4 .4-7.5-5.7 3.6-.8 .8-3.2-6-4.5-.9-2.1 2.3-2.7-2-2.1-4-1.4 1.3-1.1-2.2-2.2 3.2-2.4 5.1 1.6 .1 1.2 2.3 1.1 2.9-.3 3.1 1.8 1.2-.2 1.4-3.1-4.3-3.3-1.5-2.2 .2-1.2 2.6-2.4 1.6 1.3 2.1-.3 4.7 4.4 2.1 3.5 5.5 1.1 2.9-4.1 3.7-2.4 2-3.8 5.9 6.9 2.3 5.3 2.9 3.3 3.9 3.1 4.8 .9 2.4 3.3-5.2-.2-4.2 2.1-2.1 9.1 .6 4-2 5-.5 .4-1.4-1.9-1.7 5zM212.1 50.6l-5.7-5.1-4.1 .3-3.3-1.6 .6-.6-1.7-4.9 1.8-3.6-1.1-3.2-2-2.1 .4-.8 8.6-1.5 7.1 0-.4-.7 2.2-.6 2.2 2.2-1.3 1.1 4 1.4 2 2.1-2.4 3.2 2.4 3.4 4.6 2.7 .1 .9-.9 2.3-3.6 .8 7.5 5.7 1.4-.4 1.9 .9-1.3 2.4 2.7 2.7-2.2 .5 1.2 4.4-4.5 .5-1.7-5.6-2.6-2-.2-2.8-3.5 1.1-2.4-1.5-1 .4-1.7-3-2 .8z" fill="#3d5283" stroke="#0c1a3d" stroke-width=".8" stroke-linejoin="round"/><path d="M183 90.4l5.1-4 2 .7 1.9-.6 7.1 2.2 5.4-1.2 2.1 5 3.9-3.1 1.5 .2 1.9 5.6 1.8 1.5 .4 3.5 2.3 1.7 1.6 5.2 2.5 .6 2.8 2.3 6.2 .6-3.4 2.6-.3 2 1.8 2.4 .3 3-2.6 1.5-3 3.6-.4 3.5-1.8-.1-.7 2.6 1.4 3-1.8 3.8 4.4 5.6 1.9-.2-.1 1.9 1.9 1.1 1.7 2.8-.4 4.2 3.5 .3 9.8 6.9 3.2 .5 2 4.1 4.3 5.4-1.7 6.1 .2 6.1 4.4 0 .4 8.1 4.3 2.6 1.4 3.7 1.6 1.1-1.2 .4-5.1-1.4-1.2 1-4.6-1.6-5.5 1.1-1.6 1.6-4.2 9.2-3.1 3.9-2.3 .6-22-1.6-35-29.1-22.1-13.8-15.8-3.4 2-1.7-.5-1.7-2.7 .6-.6-2.6 1-.3-3.1-13.7 28.8-15.1 2.8-5.2 .4-8 1.9-5.3-1.2-6.7 .7-4.8 1.6-1.9 4.6-1.2 7.2-7.5z" fill="#ff8a1f" stroke="#fff1dc" stroke-width="1.2" stroke-linejoin="round"/></svg>